<svg width="28" height="16" viewBox="0 0 28 16" fill="none" xmlns="http://www.w3.org/2000/svg">
<g clip-path="url(#clip0_356_355)">
<path d="M13.9994 0.20694C5.645 0.20694 -0.000610352 7.65553 -0.000610352 7.97666C-0.000610352 8.29778 6.30133 15.7464 13.9994 15.7464C21.6974 15.7464 27.9994 8.29778 27.9994 7.97666C27.9994 7.65553 22.2342 0.20694 13.9994 0.20694ZM13.9994 12.7684C11.0653 12.7684 8.68751 10.6234 8.68751 7.97666C8.68751 5.32989 11.0653 3.18487 13.9994 3.18487C16.9334 3.18487 19.3113 5.32989 19.3113 7.97666C19.3113 10.6234 16.9334 12.7684 13.9994 12.7684Z" fill="#D7D7D7"/>
<path d="M16.3132 8.44834C16.3132 9.23359 15.6068 9.87082 14.7363 9.87082C14.3998 9.87082 14.0883 9.77549 13.8296 9.61493C13.6544 9.67514 13.4653 9.71026 13.2651 9.71026C12.3918 9.71026 11.6854 9.07303 11.6854 8.28527C11.6854 7.60789 12.211 7.04091 12.9174 6.89791C13.1705 6.41622 13.7128 6.08506 14.3414 6.08506C14.4832 6.08506 14.6195 6.10262 14.7474 6.13273C14.5694 6.3259 14.4665 6.57678 14.4665 6.84522C14.4665 7.46991 15.0283 7.9792 15.7236 7.9792C15.8876 7.9792 16.0434 7.94909 16.188 7.89641C16.2687 8.06449 16.3132 8.25265 16.3132 8.44834Z" fill="#D7D7D7"/>
</g>
<defs>
<clipPath id="clip0_356_355">
<rect width="28" height="16" fill="white"/>
</clipPath>
</defs>
</svg>
