<svg width="26" height="17" viewBox="0 0 26 17" fill="none" xmlns="http://www.w3.org/2000/svg">
<g clip-path="url(#clip0_356_347)">
<path d="M26.0004 8.38336C26.0004 8.71922 20.1486 16.5095 13.0004 16.5095C11.9209 16.5095 10.8724 16.331 9.86528 16.0267C9.50632 15.9191 9.36945 15.473 9.59929 15.1687L10.9654 13.3635C11.1023 13.1824 11.3347 13.1037 11.5465 13.1719C12.0707 13.3372 12.6311 13.4159 13.2095 13.3897C15.6784 13.2874 17.7314 11.2775 17.9173 8.77169C17.9974 7.70378 17.7469 6.70409 17.264 5.85921C17.1039 5.58108 17.1142 5.23473 17.3079 4.98021L19.0588 2.66334C19.2964 2.34586 19.7354 2.26452 20.0711 2.47705C23.7433 4.80704 26.0004 8.16296 26.0004 8.38336Z" fill="#D7D7D7"/>
<path d="M16.2176 1.83935L15.1304 3.27722C14.9367 3.53436 14.6087 3.63407 14.3014 3.5501C13.8211 3.41366 13.3149 3.35331 12.7907 3.37693C10.3219 3.47926 8.26885 5.48914 8.08291 7.9923C7.99769 9.13106 8.28693 10.1937 8.8344 11.0701C8.94287 11.2459 8.93254 11.4715 8.80858 11.6342L6.86142 14.2109C6.70906 14.4103 6.43274 14.4654 6.22098 14.3342C2.4971 12.0042 -0.00012207 8.60104 -0.00012207 8.38326C-0.00012207 8.0474 5.24223 0.257158 12.9999 0.257158C13.9709 0.257158 14.9031 0.383103 15.7941 0.603508C16.3338 0.734701 16.5559 1.39329 16.2176 1.83935Z" fill="#D7D7D7"/>
<path d="M19.3519 0.978855L18.7786 1.73715L16.457 4.80707L13.921 8.16036L12.3844 10.1939L10.4889 12.697L8.38425 15.4836L7.41842 16.7614C7.21699 17.0264 6.84253 17.0762 6.58171 16.8716C6.32088 16.6669 6.27181 16.2865 6.47325 16.0188L7.28155 14.9483L9.54377 11.9597L11.2404 9.71631L13.5853 6.61753L13.593 6.60441L15.5118 4.06976L17.6655 1.21763L18.4067 0.236302C18.6081 -0.0287075 18.9826 -0.0785609 19.2434 0.1261C19.5068 0.330761 19.5559 0.711221 19.3545 0.978855H19.3519Z" fill="#D7D7D7"/>
</g>
<defs>
<clipPath id="clip0_356_347">
<rect width="26" height="17" fill="white"/>
</clipPath>
</defs>
</svg>
